<?xml version="1.0" encoding="UTF-8" standalone="no"?>
<!DOCTYPE svg PUBLIC "-//W3C//DTD SVG 1.1//EN"
 "http://www.w3.org/Graphics/SVG/1.1/DTD/svg11.dtd">
<!-- Generated by graphviz version 12.1.2 (0)
 -->
<!-- Title: G Pages: 1 -->
<svg width="203pt" height="216pt"
 viewBox="0.00 0.00 203.18 215.57" xmlns="http://www.w3.org/2000/svg" xmlns:xlink="http://www.w3.org/1999/xlink">
<g id="graph0" class="graph" transform="scale(1 1) rotate(0) translate(4 211.57)">
<title>G</title>
<polygon fill="white" stroke="none" points="-4,4 -4,-211.57 199.18,-211.57 199.18,4 -4,4"/>
<!-- V0 -->
<g id="node1" class="node">
<title>V0</title>
<ellipse fill="none" stroke="red" cx="108.01" cy="-114.13" rx="27" ry="18"/>
<text text-anchor="middle" x="108.01" y="-109.08" font-family="Times,serif" font-size="14.00">V0</text>
</g>
<!-- V1 -->
<g id="node2" class="node">
<title>V1</title>
<ellipse fill="none" stroke="red" cx="28.35" cy="-68.14" rx="27" ry="18"/>
<text text-anchor="middle" x="28.35" y="-63.09" font-family="Times,serif" font-size="14.00">V1</text>
</g>
<!-- V1&#45;&#45;V0 -->
<g id="edge1" class="edge">
<title>V1&#45;&#45;V0</title>
<path fill="none" stroke="black" d="M48.86,-79.98C60.66,-86.8 75.45,-95.33 87.29,-102.17"/>
</g>
<!-- V2 -->
<g id="node3" class="node">
<title>V2</title>
<ellipse fill="none" stroke="red" cx="94.2" cy="-18" rx="27" ry="18"/>
<text text-anchor="middle" x="94.2" y="-12.95" font-family="Times,serif" font-size="14.00">V2</text>
</g>
<!-- V2&#45;&#45;V1 -->
<g id="edge2" class="edge">
<title>V2&#45;&#45;V1</title>
<path fill="none" stroke="black" d="M76.21,-31.7C66.92,-38.77 55.61,-47.38 46.32,-54.45"/>
</g>
<!-- V3 -->
<g id="node4" class="node">
<title>V3</title>
<ellipse fill="none" stroke="red" cx="168.18" cy="-59.41" rx="27" ry="18"/>
<text text-anchor="middle" x="168.18" y="-54.36" font-family="Times,serif" font-size="14.00">V3</text>
</g>
<!-- V3&#45;&#45;V0 -->
<g id="edge3" class="edge">
<title>V3&#45;&#45;V0</title>
<path fill="none" stroke="black" d="M152.06,-74.08C143.42,-81.93 132.82,-91.57 124.18,-99.43"/>
</g>
<!-- V3&#45;&#45;V2 -->
<g id="edge4" class="edge">
<title>V3&#45;&#45;V2</title>
<path fill="none" stroke="black" d="M147.18,-47.66C137.18,-42.06 125.26,-35.39 115.26,-29.79"/>
</g>
<!-- V4 -->
<g id="node5" class="node">
<title>V4</title>
<ellipse fill="none" stroke="red" cx="101.51" cy="-189.57" rx="27" ry="18"/>
<text text-anchor="middle" x="101.51" y="-184.52" font-family="Times,serif" font-size="14.00">V4</text>
</g>
<!-- V4&#45;&#45;V0 -->
<g id="edge5" class="edge">
<title>V4&#45;&#45;V0</title>
<path fill="none" stroke="black" d="M103.08,-171.31C104.1,-159.53 105.41,-144.28 106.43,-132.48"/>
</g>
<!-- V5 -->
<g id="node6" class="node">
<title>V5</title>
<ellipse fill="none" stroke="red" cx="27" cy="-148.41" rx="27" ry="18"/>
<text text-anchor="middle" x="27" y="-143.36" font-family="Times,serif" font-size="14.00">V5</text>
</g>
<!-- V5&#45;&#45;V1 -->
<g id="edge6" class="edge">
<title>V5&#45;&#45;V1</title>
<path fill="none" stroke="black" d="M27.31,-130.2C27.52,-117.15 27.82,-99.65 28.04,-86.56"/>
</g>
<!-- V5&#45;&#45;V4 -->
<g id="edge7" class="edge">
<title>V5&#45;&#45;V4</title>
<path fill="none" stroke="black" d="M48.15,-160.1C58.22,-165.66 70.23,-172.29 80.3,-177.85"/>
</g>
<!-- V6 -->
<g id="node7" class="node">
<title>V6</title>
<ellipse fill="none" stroke="red" cx="86.35" cy="-93.36" rx="27" ry="18"/>
<text text-anchor="middle" x="86.35" y="-88.31" font-family="Times,serif" font-size="14.00">V6</text>
</g>
<!-- V6&#45;&#45;V2 -->
<g id="edge8" class="edge">
<title>V6&#45;&#45;V2</title>
<path fill="none" stroke="black" d="M88.25,-75.12C89.48,-63.36 91.07,-48.12 92.29,-36.34"/>
</g>
<!-- V6&#45;&#45;V5 -->
<g id="edge9" class="edge">
<title>V6&#45;&#45;V5</title>
<path fill="none" stroke="black" d="M70.45,-108.11C61.93,-116.01 51.47,-125.72 42.95,-133.62"/>
</g>
<!-- V7 -->
<g id="node8" class="node">
<title>V7</title>
<ellipse fill="none" stroke="red" cx="166.62" cy="-139.01" rx="27" ry="18"/>
<text text-anchor="middle" x="166.62" y="-133.96" font-family="Times,serif" font-size="14.00">V7</text>
</g>
<!-- V7&#45;&#45;V3 -->
<g id="edge10" class="edge">
<title>V7&#45;&#45;V3</title>
<path fill="none" stroke="black" d="M166.98,-120.55C167.23,-107.69 167.57,-90.61 167.82,-77.77"/>
</g>
<!-- V7&#45;&#45;V4 -->
<g id="edge11" class="edge">
<title>V7&#45;&#45;V4</title>
<path fill="none" stroke="black" d="M148.83,-152.83C139.64,-159.96 128.46,-168.64 119.28,-175.77"/>
</g>
<!-- V7&#45;&#45;V6 -->
<g id="edge12" class="edge">
<title>V7&#45;&#45;V6</title>
<path fill="none" stroke="black" d="M145.95,-127.26C134.06,-120.49 119.16,-112.02 107.23,-105.24"/>
</g>
</g>
</svg>
