<?xml version="1.0" encoding="UTF-8" standalone="no"?>
<!DOCTYPE svg PUBLIC "-//W3C//DTD SVG 1.1//EN"
 "http://www.w3.org/Graphics/SVG/1.1/DTD/svg11.dtd">
<!-- Generated by graphviz version 12.1.2 (0)
 -->
<!-- Title: G Pages: 1 -->
<svg width="216pt" height="208pt"
 viewBox="0.00 0.00 216.13 207.52" xmlns="http://www.w3.org/2000/svg" xmlns:xlink="http://www.w3.org/1999/xlink">
<g id="graph0" class="graph" transform="scale(1 1) rotate(0) translate(4 203.52)">
<title>G</title>
<polygon fill="white" stroke="none" points="-4,4 -4,-203.52 212.13,-203.52 212.13,4 -4,4"/>
<!-- V0 -->
<g id="node1" class="node">
<title>V0</title>
<ellipse fill="none" stroke="green" cx="27" cy="-130.92" rx="27" ry="18"/>
<text text-anchor="middle" x="27" y="-125.87" font-family="Times,serif" font-size="14.00">V0</text>
</g>
<!-- V1 -->
<g id="node2" class="node">
<title>V1</title>
<ellipse fill="none" stroke="green" cx="52.1" cy="-38.95" rx="27" ry="18"/>
<text text-anchor="middle" x="52.1" y="-33.9" font-family="Times,serif" font-size="14.00">V1</text>
</g>
<!-- V1&#45;&#45;V0 -->
<g id="edge1" class="edge">
<title>V1&#45;&#45;V0</title>
<path fill="none" stroke="black" d="M47.14,-57.12C42.74,-73.24 36.34,-96.67 31.95,-112.78"/>
</g>
<!-- V2 -->
<g id="node3" class="node">
<title>V2</title>
<ellipse fill="none" stroke="green" cx="142.77" cy="-37.46" rx="27" ry="18"/>
<text text-anchor="middle" x="142.77" y="-32.41" font-family="Times,serif" font-size="14.00">V2</text>
</g>
<!-- V2&#45;&#45;V1 -->
<g id="edge2" class="edge">
<title>V2&#45;&#45;V1</title>
<path fill="none" stroke="black" d="M115.56,-37.91C104.09,-38.1 90.76,-38.32 79.28,-38.51"/>
</g>
<!-- V3 -->
<g id="node4" class="node">
<title>V3</title>
<ellipse fill="none" stroke="green" cx="176.79" cy="-118.91" rx="27" ry="18"/>
<text text-anchor="middle" x="176.79" y="-113.86" font-family="Times,serif" font-size="14.00">V3</text>
</g>
<!-- V3&#45;&#45;V2 -->
<g id="edge3" class="edge">
<title>V3&#45;&#45;V2</title>
<path fill="none" stroke="black" d="M169.41,-101.24C163.7,-87.58 155.84,-68.75 150.14,-55.1"/>
</g>
<!-- V4 -->
<g id="node5" class="node">
<title>V4</title>
<ellipse fill="none" stroke="green" cx="108.4" cy="-181.52" rx="27" ry="18"/>
<text text-anchor="middle" x="108.4" y="-176.47" font-family="Times,serif" font-size="14.00">V4</text>
</g>
<!-- V4&#45;&#45;V0 -->
<g id="edge4" class="edge">
<title>V4&#45;&#45;V0</title>
<path fill="none" stroke="black" d="M88.28,-169.01C75.75,-161.23 59.7,-151.25 47.17,-143.46"/>
</g>
<!-- V4&#45;&#45;V3 -->
<g id="edge5" class="edge">
<title>V4&#45;&#45;V3</title>
<path fill="none" stroke="black" d="M124.6,-166.68C135.51,-156.7 149.82,-143.6 160.7,-133.64"/>
</g>
<!-- V5 -->
<g id="node6" class="node">
<title>V5</title>
<ellipse fill="none" stroke="green" cx="65.41" cy="-161.71" rx="27" ry="18"/>
<text text-anchor="middle" x="65.41" y="-156.66" font-family="Times,serif" font-size="14.00">V5</text>
</g>
<!-- V5&#45;&#45;V0 -->
<g id="edge6" class="edge">
<title>V5&#45;&#45;V0</title>
<path fill="none" stroke="black" d="M48,-147.76C46.89,-146.87 45.77,-145.97 44.66,-145.08"/>
</g>
<!-- V5&#45;&#45;V4 -->
<g id="edge7" class="edge">
<title>V5&#45;&#45;V4</title>
<path fill="none" stroke="black" d="M87.91,-172.08C88.07,-172.16 88.24,-172.23 88.4,-172.31"/>
</g>
<!-- V6 -->
<g id="node7" class="node">
<title>V6</title>
<ellipse fill="none" stroke="green" cx="30.56" cy="-80.37" rx="27" ry="18"/>
<text text-anchor="middle" x="30.56" y="-75.32" font-family="Times,serif" font-size="14.00">V6</text>
</g>
<!-- V6&#45;&#45;V0 -->
<g id="edge8" class="edge">
<title>V6&#45;&#45;V0</title>
<path fill="none" stroke="black" d="M29.28,-98.61C28.96,-103.14 28.62,-107.99 28.3,-112.52"/>
</g>
<!-- V6&#45;&#45;V1 -->
<g id="edge9" class="edge">
<title>V6&#45;&#45;V1</title>
<path fill="none" stroke="black" d="M39.57,-63.04C40.72,-60.83 41.9,-58.56 43.06,-56.34"/>
</g>
<!-- V6&#45;&#45;V5 -->
<g id="edge10" class="edge">
<title>V6&#45;&#45;V5</title>
<path fill="none" stroke="black" d="M38.13,-98.02C43.97,-111.66 52.02,-130.46 57.86,-144.1"/>
</g>
<!-- V7 -->
<g id="node8" class="node">
<title>V7</title>
<ellipse fill="none" stroke="green" cx="99.55" cy="-18" rx="27" ry="18"/>
<text text-anchor="middle" x="99.55" y="-12.95" font-family="Times,serif" font-size="14.00">V7</text>
</g>
<!-- V7&#45;&#45;V1 -->
<g id="edge11" class="edge">
<title>V7&#45;&#45;V1</title>
<path fill="none" stroke="black" d="M76.66,-28.11C76.09,-28.36 75.52,-28.61 74.95,-28.86"/>
</g>
<!-- V7&#45;&#45;V2 -->
<g id="edge12" class="edge">
<title>V7&#45;&#45;V2</title>
<path fill="none" stroke="black" d="M122.17,-28.19C122.34,-28.26 122.5,-28.33 122.66,-28.41"/>
</g>
<!-- V7&#45;&#45;V6 -->
<g id="edge13" class="edge">
<title>V7&#45;&#45;V6</title>
<path fill="none" stroke="black" d="M83.2,-32.78C72.21,-42.72 57.77,-55.77 46.8,-65.69"/>
</g>
<!-- V8 -->
<g id="node9" class="node">
<title>V8</title>
<ellipse fill="none" stroke="green" cx="181.13" cy="-68.6" rx="27" ry="18"/>
<text text-anchor="middle" x="181.13" y="-63.55" font-family="Times,serif" font-size="14.00">V8</text>
</g>
<!-- V8&#45;&#45;V2 -->
<g id="edge14" class="edge">
<title>V8&#45;&#45;V2</title>
<path fill="none" stroke="black" d="M163.75,-54.49C162.48,-53.46 161.2,-52.42 159.93,-51.39"/>
</g>
<!-- V8&#45;&#45;V3 -->
<g id="edge15" class="edge">
<title>V8&#45;&#45;V3</title>
<path fill="none" stroke="black" d="M179.54,-87.05C179.16,-91.42 178.76,-96.09 178.38,-100.46"/>
</g>
<!-- V8&#45;&#45;V7 -->
<g id="edge16" class="edge">
<title>V8&#45;&#45;V7</title>
<path fill="none" stroke="black" d="M160.97,-56.09C148.42,-48.3 132.33,-38.33 119.77,-30.54"/>
</g>
<!-- V9 -->
<g id="node10" class="node">
<title>V9</title>
<ellipse fill="none" stroke="green" cx="156.24" cy="-160.78" rx="27" ry="18"/>
<text text-anchor="middle" x="156.24" y="-155.73" font-family="Times,serif" font-size="14.00">V9</text>
</g>
<!-- V9&#45;&#45;V3 -->
<g id="edge17" class="edge">
<title>V9&#45;&#45;V3</title>
<path fill="none" stroke="black" d="M164.84,-143.27C165.98,-140.94 167.15,-138.55 168.29,-136.22"/>
</g>
<!-- V9&#45;&#45;V4 -->
<g id="edge18" class="edge">
<title>V9&#45;&#45;V4</title>
<path fill="none" stroke="black" d="M133.16,-170.79C132.58,-171.03 132.01,-171.28 131.44,-171.53"/>
</g>
<!-- V9&#45;&#45;V5 -->
<g id="edge19" class="edge">
<title>V9&#45;&#45;V5</title>
<path fill="none" stroke="black" d="M128.99,-161.06C117.49,-161.18 104.14,-161.32 92.64,-161.43"/>
</g>
<!-- V9&#45;&#45;V8 -->
<g id="edge20" class="edge">
<title>V9&#45;&#45;V8</title>
<path fill="none" stroke="black" d="M161.04,-143.01C165.42,-126.79 171.86,-102.93 176.26,-86.63"/>
</g>
</g>
</svg>
