<?xml version="1.0" encoding="UTF-8" standalone="no"?>
<!DOCTYPE svg PUBLIC "-//W3C//DTD SVG 1.1//EN"
 "http://www.w3.org/Graphics/SVG/1.1/DTD/svg11.dtd">
<!-- Generated by graphviz version 12.1.2 (0)
 -->
<!-- Title: G Pages: 1 -->
<svg width="381pt" height="332pt"
 viewBox="0.00 0.00 381.37 331.55" xmlns="http://www.w3.org/2000/svg" xmlns:xlink="http://www.w3.org/1999/xlink">
<g id="graph0" class="graph" transform="scale(1 1) rotate(0) translate(4 327.55)">
<title>G</title>
<polygon fill="white" stroke="none" points="-4,4 -4,-327.55 377.37,-327.55 377.37,4 -4,4"/>
<!-- V0 -->
<g id="node1" class="node">
<title>V0</title>
<ellipse fill="none" stroke="red" cx="158.16" cy="-98.75" rx="27" ry="18"/>
<text text-anchor="middle" x="158.16" y="-93.7" font-family="Times,serif" font-size="14.00">V0</text>
</g>
<!-- V1 -->
<g id="node2" class="node">
<title>V1</title>
<ellipse fill="none" stroke="red" cx="328.66" cy="-72.94" rx="27" ry="18"/>
<text text-anchor="middle" x="328.66" y="-67.89" font-family="Times,serif" font-size="14.00">V1</text>
</g>
<!-- V2 -->
<g id="node3" class="node">
<title>V2</title>
<ellipse fill="none" stroke="red" cx="250.41" cy="-78.95" rx="27" ry="18"/>
<text text-anchor="middle" x="250.41" y="-73.9" font-family="Times,serif" font-size="14.00">V2</text>
</g>
<!-- V2&#45;&#45;V0 -->
<g id="edge1" class="edge">
<title>V2&#45;&#45;V0</title>
<path fill="none" stroke="black" d="M224.22,-84.57C211.65,-87.27 196.63,-90.49 184.09,-93.18"/>
</g>
<!-- V3 -->
<g id="node4" class="node">
<title>V3</title>
<ellipse fill="none" stroke="red" cx="225.82" cy="-305.55" rx="27" ry="18"/>
<text text-anchor="middle" x="225.82" y="-300.5" font-family="Times,serif" font-size="14.00">V3</text>
</g>
<!-- V4 -->
<g id="node5" class="node">
<title>V4</title>
<ellipse fill="none" stroke="red" cx="27" cy="-159.18" rx="27" ry="18"/>
<text text-anchor="middle" x="27" y="-154.13" font-family="Times,serif" font-size="14.00">V4</text>
</g>
<!-- V5 -->
<g id="node6" class="node">
<title>V5</title>
<ellipse fill="none" stroke="red" cx="140.48" cy="-297.16" rx="27" ry="18"/>
<text text-anchor="middle" x="140.48" y="-292.11" font-family="Times,serif" font-size="14.00">V5</text>
</g>
<!-- V5&#45;&#45;V3 -->
<g id="edge2" class="edge">
<title>V5&#45;&#45;V3</title>
<path fill="none" stroke="black" d="M167.48,-299.81C177.44,-300.79 188.73,-301.9 198.7,-302.88"/>
</g>
<!-- V6 -->
<g id="node7" class="node">
<title>V6</title>
<ellipse fill="none" stroke="red" cx="138.48" cy="-169.89" rx="27" ry="18"/>
<text text-anchor="middle" x="138.48" y="-164.84" font-family="Times,serif" font-size="14.00">V6</text>
</g>
<!-- V6&#45;&#45;V0 -->
<g id="edge3" class="edge">
<title>V6&#45;&#45;V0</title>
<path fill="none" stroke="black" d="M143.44,-151.94C146.45,-141.07 150.27,-127.27 153.26,-116.45"/>
</g>
<!-- V7 -->
<g id="node8" class="node">
<title>V7</title>
<ellipse fill="none" stroke="red" cx="45.14" cy="-111.38" rx="27" ry="18"/>
<text text-anchor="middle" x="45.14" y="-106.33" font-family="Times,serif" font-size="14.00">V7</text>
</g>
<!-- V7&#45;&#45;V6 -->
<g id="edge4" class="edge">
<title>V7&#45;&#45;V6</title>
<path fill="none" stroke="black" d="M64.94,-123.79C80.67,-133.65 102.58,-147.39 118.39,-157.3"/>
</g>
<!-- V8 -->
<g id="node9" class="node">
<title>V8</title>
<ellipse fill="none" stroke="red" cx="71.13" cy="-155.77" rx="27" ry="18"/>
<text text-anchor="middle" x="71.13" y="-150.72" font-family="Times,serif" font-size="14.00">V8</text>
</g>
<!-- V8&#45;&#45;V0 -->
<g id="edge5" class="edge">
<title>V8&#45;&#45;V0</title>
<path fill="none" stroke="black" d="M90.45,-143.12C104.77,-133.73 124.22,-120.99 138.6,-111.57"/>
</g>
<!-- V8&#45;&#45;V7 -->
<g id="edge6" class="edge">
<title>V8&#45;&#45;V7</title>
<path fill="none" stroke="black" d="M61.16,-138.74C59.21,-135.41 57.17,-131.92 55.22,-128.59"/>
</g>
<!-- V9 -->
<g id="node10" class="node">
<title>V9</title>
<ellipse fill="none" stroke="red" cx="284.93" cy="-56.44" rx="27" ry="18"/>
<text text-anchor="middle" x="284.93" y="-51.39" font-family="Times,serif" font-size="14.00">V9</text>
</g>
<!-- V9&#45;&#45;V1 -->
<g id="edge7" class="edge">
<title>V9&#45;&#45;V1</title>
<path fill="none" stroke="black" d="M308.84,-65.47C309,-65.53 309.16,-65.59 309.32,-65.65"/>
</g>
<!-- V10 -->
<g id="node11" class="node">
<title>V10</title>
<ellipse fill="none" stroke="red" cx="202.47" cy="-25.13" rx="27" ry="18"/>
<text text-anchor="middle" x="202.47" y="-20.08" font-family="Times,serif" font-size="14.00">V10</text>
</g>
<!-- V10&#45;&#45;V9 -->
<g id="edge8" class="edge">
<title>V10&#45;&#45;V9</title>
<path fill="none" stroke="black" d="M226.32,-34.18C237.26,-38.34 250.2,-43.25 261.13,-47.41"/>
</g>
<!-- V11 -->
<g id="node12" class="node">
<title>V11</title>
<ellipse fill="none" stroke="red" cx="223.01" cy="-113.44" rx="27" ry="18"/>
<text text-anchor="middle" x="223.01" y="-108.39" font-family="Times,serif" font-size="14.00">V11</text>
</g>
<!-- V11&#45;&#45;V1 -->
<g id="edge9" class="edge">
<title>V11&#45;&#45;V1</title>
<path fill="none" stroke="black" d="M246.72,-104.35C264.12,-97.68 287.65,-88.66 305.03,-82"/>
</g>
<!-- V11&#45;&#45;V10 -->
<g id="edge10" class="edge">
<title>V11&#45;&#45;V10</title>
<path fill="none" stroke="black" d="M218.85,-95.57C215.31,-80.35 210.25,-58.57 206.69,-43.27"/>
</g>
<!-- V12 -->
<g id="node13" class="node">
<title>V12</title>
<ellipse fill="none" stroke="red" cx="346.37" cy="-123.46" rx="27" ry="18"/>
<text text-anchor="middle" x="346.37" y="-118.41" font-family="Times,serif" font-size="14.00">V12</text>
</g>
<!-- V12&#45;&#45;V1 -->
<g id="edge11" class="edge">
<title>V12&#45;&#45;V1</title>
<path fill="none" stroke="black" d="M340.08,-105.51C338.41,-100.74 336.6,-95.6 334.93,-90.84"/>
</g>
<!-- V12&#45;&#45;V2 -->
<g id="edge12" class="edge">
<title>V12&#45;&#45;V2</title>
<path fill="none" stroke="black" d="M324.12,-113.14C308.72,-106 288.32,-96.53 272.88,-89.37"/>
</g>
<!-- V13 -->
<g id="node14" class="node">
<title>V13</title>
<ellipse fill="none" stroke="red" cx="327.69" cy="-195.2" rx="27" ry="18"/>
<text text-anchor="middle" x="327.69" y="-190.15" font-family="Times,serif" font-size="14.00">V13</text>
</g>
<!-- V13&#45;&#45;V12 -->
<g id="edge13" class="edge">
<title>V13&#45;&#45;V12</title>
<path fill="none" stroke="black" d="M332.4,-177.09C335.26,-166.14 338.88,-152.22 341.72,-141.31"/>
</g>
<!-- V14 -->
<g id="node15" class="node">
<title>V14</title>
<ellipse fill="none" stroke="red" cx="227.82" cy="-146.87" rx="27" ry="18"/>
<text text-anchor="middle" x="227.82" y="-141.82" font-family="Times,serif" font-size="14.00">V14</text>
</g>
<!-- V14&#45;&#45;V2 -->
<g id="edge14" class="edge">
<title>V14&#45;&#45;V2</title>
<path fill="none" stroke="black" d="M233.76,-129.03C237.05,-119.12 241.14,-106.83 244.44,-96.91"/>
</g>
<!-- V14&#45;&#45;V13 -->
<g id="edge15" class="edge">
<title>V14&#45;&#45;V13</title>
<path fill="none" stroke="black" d="M249.99,-157.6C266.54,-165.61 289.05,-176.5 305.59,-184.5"/>
</g>
<!-- V15 -->
<g id="node16" class="node">
<title>V15</title>
<ellipse fill="none" stroke="red" cx="219.99" cy="-230.03" rx="27" ry="18"/>
<text text-anchor="middle" x="219.99" y="-224.98" font-family="Times,serif" font-size="14.00">V15</text>
</g>
<!-- V15&#45;&#45;V3 -->
<g id="edge16" class="edge">
<title>V15&#45;&#45;V3</title>
<path fill="none" stroke="black" d="M221.4,-248.31C222.31,-260.1 223.49,-275.37 224.4,-287.18"/>
</g>
<!-- V15&#45;&#45;V6 -->
<g id="edge17" class="edge">
<title>V15&#45;&#45;V6</title>
<path fill="none" stroke="black" d="M201.5,-216.38C188.16,-206.54 170.22,-193.31 156.9,-183.48"/>
</g>
<!-- V16 -->
<g id="node17" class="node">
<title>V16</title>
<ellipse fill="none" stroke="red" cx="293.54" cy="-176.48" rx="27" ry="18"/>
<text text-anchor="middle" x="293.54" y="-171.43" font-family="Times,serif" font-size="14.00">V16</text>
</g>
<!-- V16&#45;&#45;V9 -->
<g id="edge18" class="edge">
<title>V16&#45;&#45;V9</title>
<path fill="none" stroke="black" d="M292.23,-158.25C290.61,-135.69 287.87,-97.49 286.25,-74.85"/>
</g>
<!-- V16&#45;&#45;V15 -->
<g id="edge19" class="edge">
<title>V16&#45;&#45;V15</title>
<path fill="none" stroke="black" d="M274.98,-189.99C263.83,-198.11 249.69,-208.4 238.55,-216.52"/>
</g>
<!-- V17 -->
<g id="node18" class="node">
<title>V17</title>
<ellipse fill="none" stroke="red" cx="305.48" cy="-262.32" rx="27" ry="18"/>
<text text-anchor="middle" x="305.48" y="-257.27" font-family="Times,serif" font-size="14.00">V17</text>
</g>
<!-- V17&#45;&#45;V3 -->
<g id="edge20" class="edge">
<title>V17&#45;&#45;V3</title>
<path fill="none" stroke="black" d="M284.13,-273.9C272.61,-280.16 258.44,-287.85 246.95,-294.08"/>
</g>
<!-- V17&#45;&#45;V13 -->
<g id="edge21" class="edge">
<title>V17&#45;&#45;V13</title>
<path fill="none" stroke="black" d="M311.43,-244.33C314.62,-234.7 318.53,-222.87 321.72,-213.23"/>
</g>
<!-- V17&#45;&#45;V16 -->
<g id="edge22" class="edge">
<title>V17&#45;&#45;V16</title>
<path fill="none" stroke="black" d="M302.95,-244.11C300.92,-229.55 298.09,-209.22 296.07,-194.66"/>
</g>
<!-- V18 -->
<g id="node19" class="node">
<title>V18</title>
<ellipse fill="none" stroke="red" cx="31.32" cy="-59.13" rx="27" ry="18"/>
<text text-anchor="middle" x="31.32" y="-54.08" font-family="Times,serif" font-size="14.00">V18</text>
</g>
<!-- V18&#45;&#45;V4 -->
<g id="edge23" class="edge">
<title>V18&#45;&#45;V4</title>
<path fill="none" stroke="black" d="M30.53,-77.48C29.75,-95.53 28.57,-122.93 27.79,-140.95"/>
</g>
<!-- V18&#45;&#45;V7 -->
<g id="edge24" class="edge">
<title>V18&#45;&#45;V7</title>
<path fill="none" stroke="black" d="M36.08,-77.11C37.45,-82.31 38.95,-87.98 40.33,-93.19"/>
</g>
<!-- V19 -->
<g id="node20" class="node">
<title>V19</title>
<ellipse fill="none" stroke="red" cx="115.76" cy="-18" rx="27" ry="18"/>
<text text-anchor="middle" x="115.76" y="-12.95" font-family="Times,serif" font-size="14.00">V19</text>
</g>
<!-- V19&#45;&#45;V10 -->
<g id="edge25" class="edge">
<title>V19&#45;&#45;V10</title>
<path fill="none" stroke="black" d="M142.72,-20.22C153.06,-21.07 164.86,-22.04 175.23,-22.89"/>
</g>
<!-- V19&#45;&#45;V18 -->
<g id="edge26" class="edge">
<title>V19&#45;&#45;V18</title>
<path fill="none" stroke="black" d="M93.57,-28.81C81.16,-34.85 65.75,-42.36 53.36,-48.39"/>
</g>
<!-- V20 -->
<g id="node21" class="node">
<title>V20</title>
<ellipse fill="none" stroke="red" cx="118.82" cy="-101.83" rx="27" ry="18"/>
<text text-anchor="middle" x="118.82" y="-96.78" font-family="Times,serif" font-size="14.00">V20</text>
</g>
<!-- V20&#45;&#45;V4 -->
<g id="edge27" class="edge">
<title>V20&#45;&#45;V4</title>
<path fill="none" stroke="black" d="M98.89,-114.27C83.49,-123.89 62.28,-137.15 46.88,-146.76"/>
</g>
<!-- V20&#45;&#45;V14 -->
<g id="edge28" class="edge">
<title>V20&#45;&#45;V14</title>
<path fill="none" stroke="black" d="M142.2,-111.49C160.59,-119.09 186.09,-129.63 204.48,-137.23"/>
</g>
<!-- V20&#45;&#45;V19 -->
<g id="edge29" class="edge">
<title>V20&#45;&#45;V19</title>
<path fill="none" stroke="black" d="M118.15,-83.64C117.64,-69.68 116.94,-50.47 116.43,-36.44"/>
</g>
<!-- V21 -->
<g id="node22" class="node">
<title>V21</title>
<ellipse fill="none" stroke="red" cx="47.38" cy="-262.01" rx="27" ry="18"/>
<text text-anchor="middle" x="47.38" y="-256.96" font-family="Times,serif" font-size="14.00">V21</text>
</g>
<!-- V21&#45;&#45;V4 -->
<g id="edge30" class="edge">
<title>V21&#45;&#45;V4</title>
<path fill="none" stroke="black" d="M43.83,-244.1C40.12,-225.34 34.31,-196.04 30.58,-177.23"/>
</g>
<!-- V21&#45;&#45;V5 -->
<g id="edge31" class="edge">
<title>V21&#45;&#45;V5</title>
<path fill="none" stroke="black" d="M71.36,-271.06C85.26,-276.31 102.7,-282.9 116.59,-288.14"/>
</g>
<!-- V22 -->
<g id="node23" class="node">
<title>V22</title>
<ellipse fill="none" stroke="red" cx="80.71" cy="-228.97" rx="27" ry="18"/>
<text text-anchor="middle" x="80.71" y="-223.92" font-family="Times,serif" font-size="14.00">V22</text>
</g>
<!-- V22&#45;&#45;V8 -->
<g id="edge32" class="edge">
<title>V22&#45;&#45;V8</title>
<path fill="none" stroke="black" d="M78.34,-210.87C76.88,-199.7 75.01,-185.4 73.54,-174.17"/>
</g>
<!-- V22&#45;&#45;V21 -->
<g id="edge33" class="edge">
<title>V22&#45;&#45;V21</title>
<path fill="none" stroke="black" d="M65.61,-243.94C64.64,-244.9 63.67,-245.86 62.71,-246.82"/>
</g>
<!-- V23 -->
<g id="node24" class="node">
<title>V23</title>
<ellipse fill="none" stroke="red" cx="164.96" cy="-217.96" rx="27" ry="18"/>
<text text-anchor="middle" x="164.96" y="-212.91" font-family="Times,serif" font-size="14.00">V23</text>
</g>
<!-- V23&#45;&#45;V5 -->
<g id="edge34" class="edge">
<title>V23&#45;&#45;V5</title>
<path fill="none" stroke="black" d="M159.41,-235.93C155.4,-248.89 150.02,-266.31 146.01,-279.26"/>
</g>
<!-- V23&#45;&#45;V11 -->
<g id="edge35" class="edge">
<title>V23&#45;&#45;V11</title>
<path fill="none" stroke="black" d="M174.55,-200.7C185.3,-181.33 202.65,-150.1 213.41,-130.72"/>
</g>
<!-- V23&#45;&#45;V22 -->
<g id="edge36" class="edge">
<title>V23&#45;&#45;V22</title>
<path fill="none" stroke="black" d="M138.3,-221.44C128.47,-222.72 117.33,-224.18 107.48,-225.47"/>
</g>
</g>
</svg>
