<?xml version="1.0" encoding="UTF-8" standalone="no"?>
<!DOCTYPE svg PUBLIC "-//W3C//DTD SVG 1.1//EN"
 "http://www.w3.org/Graphics/SVG/1.1/DTD/svg11.dtd">
<!-- Generated by graphviz version 12.1.2 (0)
 -->
<!-- Title: G Pages: 1 -->
<svg width="271pt" height="256pt"
 viewBox="0.00 0.00 271.43 255.70" xmlns="http://www.w3.org/2000/svg" xmlns:xlink="http://www.w3.org/1999/xlink">
<g id="graph0" class="graph" transform="scale(1 1) rotate(0) translate(4 251.7)">
<title>G</title>
<polygon fill="white" stroke="none" points="-4,4 -4,-251.7 267.43,-251.7 267.43,4 -4,4"/>
<!-- V0 -->
<g id="node1" class="node">
<title>V0</title>
<ellipse fill="none" stroke="green" cx="119.19" cy="-18" rx="27" ry="18"/>
<text text-anchor="middle" x="119.19" y="-12.95" font-family="Times,serif" font-size="14.00">V0</text>
</g>
<!-- V1 -->
<g id="node2" class="node">
<title>V1</title>
<ellipse fill="none" stroke="green" cx="221.44" cy="-96.2" rx="27" ry="18"/>
<text text-anchor="middle" x="221.44" y="-91.15" font-family="Times,serif" font-size="14.00">V1</text>
</g>
<!-- V2 -->
<g id="node3" class="node">
<title>V2</title>
<ellipse fill="none" stroke="green" cx="36.49" cy="-117.11" rx="27" ry="18"/>
<text text-anchor="middle" x="36.49" y="-112.06" font-family="Times,serif" font-size="14.00">V2</text>
</g>
<!-- V3 -->
<g id="node4" class="node">
<title>V3</title>
<ellipse fill="none" stroke="green" cx="176.75" cy="-229.7" rx="27" ry="18"/>
<text text-anchor="middle" x="176.75" y="-224.65" font-family="Times,serif" font-size="14.00">V3</text>
</g>
<!-- V4 -->
<g id="node5" class="node">
<title>V4</title>
<ellipse fill="none" stroke="green" cx="190.59" cy="-53.67" rx="27" ry="18"/>
<text text-anchor="middle" x="190.59" y="-48.62" font-family="Times,serif" font-size="14.00">V4</text>
</g>
<!-- V4&#45;&#45;V0 -->
<g id="edge1" class="edge">
<title>V4&#45;&#45;V0</title>
<path fill="none" stroke="black" d="M168.78,-42.77C159.92,-38.35 149.71,-33.25 140.87,-28.83"/>
</g>
<!-- V4&#45;&#45;V1 -->
<g id="edge2" class="edge">
<title>V4&#45;&#45;V1</title>
<path fill="none" stroke="black" d="M202.43,-69.99C204.74,-73.18 207.17,-76.52 209.48,-79.71"/>
</g>
<!-- V5 -->
<g id="node6" class="node">
<title>V5</title>
<ellipse fill="none" stroke="green" cx="103.56" cy="-75.52" rx="27" ry="18"/>
<text text-anchor="middle" x="103.56" y="-70.47" font-family="Times,serif" font-size="14.00">V5</text>
</g>
<!-- V5&#45;&#45;V0 -->
<g id="edge3" class="edge">
<title>V5&#45;&#45;V0</title>
<path fill="none" stroke="black" d="M108.42,-57.64C110.28,-50.78 112.41,-42.95 114.28,-36.07"/>
</g>
<!-- V5&#45;&#45;V2 -->
<g id="edge4" class="edge">
<title>V5&#45;&#45;V2</title>
<path fill="none" stroke="black" d="M83.43,-88C74.95,-93.26 65.08,-99.38 56.6,-104.64"/>
</g>
<!-- V5&#45;&#45;V4 -->
<g id="edge5" class="edge">
<title>V5&#45;&#45;V4</title>
<path fill="none" stroke="black" d="M129.2,-69.08C140.43,-66.26 153.59,-62.96 164.83,-60.13"/>
</g>
<!-- V6 -->
<g id="node7" class="node">
<title>V6</title>
<ellipse fill="none" stroke="green" cx="143.97" cy="-81.44" rx="27" ry="18"/>
<text text-anchor="middle" x="143.97" y="-76.39" font-family="Times,serif" font-size="14.00">V6</text>
</g>
<!-- V6&#45;&#45;V0 -->
<g id="edge6" class="edge">
<title>V6&#45;&#45;V0</title>
<path fill="none" stroke="black" d="M137.06,-63.77C133.63,-54.97 129.49,-44.36 126.05,-35.58"/>
</g>
<!-- V6&#45;&#45;V1 -->
<g id="edge7" class="edge">
<title>V6&#45;&#45;V1</title>
<path fill="none" stroke="black" d="M170.2,-86.44C178.27,-87.98 187.16,-89.67 195.24,-91.21"/>
</g>
<!-- V7 -->
<g id="node8" class="node">
<title>V7</title>
<ellipse fill="none" stroke="green" cx="53.52" cy="-67.79" rx="27" ry="18"/>
<text text-anchor="middle" x="53.52" y="-62.74" font-family="Times,serif" font-size="14.00">V7</text>
</g>
<!-- V7&#45;&#45;V0 -->
<g id="edge8" class="edge">
<title>V7&#45;&#45;V0</title>
<path fill="none" stroke="black" d="M71.46,-54.19C80.73,-47.16 92,-38.61 101.26,-31.59"/>
</g>
<!-- V7&#45;&#45;V2 -->
<g id="edge9" class="edge">
<title>V7&#45;&#45;V2</title>
<path fill="none" stroke="black" d="M47.37,-85.6C45.84,-90.01 44.21,-94.74 42.68,-99.16"/>
</g>
<!-- V7&#45;&#45;V6 -->
<g id="edge10" class="edge">
<title>V7&#45;&#45;V6</title>
<path fill="none" stroke="black" d="M80.16,-71.81C91.84,-73.57 105.51,-75.64 117.2,-77.4"/>
</g>
<!-- V8 -->
<g id="node9" class="node">
<title>V8</title>
<ellipse fill="none" stroke="green" cx="161.28" cy="-160.5" rx="27" ry="18"/>
<text text-anchor="middle" x="161.28" y="-155.45" font-family="Times,serif" font-size="14.00">V8</text>
</g>
<!-- V8&#45;&#45;V1 -->
<g id="edge11" class="edge">
<title>V8&#45;&#45;V1</title>
<path fill="none" stroke="black" d="M175.85,-144.93C185.31,-134.82 197.58,-121.7 207.01,-111.62"/>
</g>
<!-- V8&#45;&#45;V3 -->
<g id="edge12" class="edge">
<title>V8&#45;&#45;V3</title>
<path fill="none" stroke="black" d="M165.35,-178.68C167.64,-188.93 170.49,-201.69 172.77,-211.88"/>
</g>
<!-- V8&#45;&#45;V6 -->
<g id="edge13" class="edge">
<title>V8&#45;&#45;V6</title>
<path fill="none" stroke="black" d="M157.35,-142.56C154.54,-129.71 150.76,-112.47 147.94,-99.58"/>
</g>
<!-- V9 -->
<g id="node10" class="node">
<title>V9</title>
<ellipse fill="none" stroke="green" cx="236.43" cy="-147.14" rx="27" ry="18"/>
<text text-anchor="middle" x="236.43" y="-142.09" font-family="Times,serif" font-size="14.00">V9</text>
</g>
<!-- V9&#45;&#45;V1 -->
<g id="edge14" class="edge">
<title>V9&#45;&#45;V1</title>
<path fill="none" stroke="black" d="M231.1,-129.04C229.69,-124.23 228.16,-119.05 226.75,-114.25"/>
</g>
<!-- V9&#45;&#45;V3 -->
<g id="edge15" class="edge">
<title>V9&#45;&#45;V3</title>
<path fill="none" stroke="black" d="M224.64,-163.45C214.24,-177.83 199.17,-198.69 188.72,-213.14"/>
</g>
<!-- V9&#45;&#45;V4 -->
<g id="edge16" class="edge">
<title>V9&#45;&#45;V4</title>
<path fill="none" stroke="black" d="M228.02,-129.99C219.8,-113.23 207.36,-87.85 199.1,-71.02"/>
</g>
<!-- V10 -->
<g id="node11" class="node">
<title>V10</title>
<ellipse fill="none" stroke="red" cx="108.68" cy="-158.54" rx="27" ry="18"/>
<text text-anchor="middle" x="108.68" y="-153.49" font-family="Times,serif" font-size="14.00">V10</text>
</g>
<!-- V10&#45;&#45;V2 -->
<g id="edge17" class="edge">
<title>V10&#45;&#45;V2</title>
<path fill="none" stroke="black" d="M87.8,-146.56C78.14,-141.01 66.7,-134.44 57.07,-128.92"/>
</g>
<!-- V10&#45;&#45;V5 -->
<g id="edge18" class="edge">
<title>V10&#45;&#45;V5</title>
<path fill="none" stroke="black" d="M107.54,-140.12C106.69,-126.36 105.54,-107.64 104.69,-93.89"/>
</g>
<!-- V11 -->
<g id="node12" class="node">
<title>V11</title>
<ellipse fill="none" stroke="red" cx="27" cy="-168.85" rx="27" ry="18"/>
<text text-anchor="middle" x="27" y="-163.8" font-family="Times,serif" font-size="14.00">V11</text>
</g>
<!-- V11&#45;&#45;V2 -->
<g id="edge19" class="edge">
<title>V11&#45;&#45;V2</title>
<path fill="none" stroke="black" d="M30.32,-150.75C31.24,-145.74 32.24,-140.3 33.16,-135.28"/>
</g>
<!-- V11&#45;&#45;V7 -->
<g id="edge20" class="edge">
<title>V11&#45;&#45;V7</title>
<path fill="none" stroke="black" d="M31.74,-150.78C36.57,-132.39 44,-104.04 48.82,-85.7"/>
</g>
<!-- V12 -->
<g id="node13" class="node">
<title>V12</title>
<ellipse fill="none" stroke="red" cx="99.44" cy="-222.56" rx="27" ry="18"/>
<text text-anchor="middle" x="99.44" y="-217.51" font-family="Times,serif" font-size="14.00">V12</text>
</g>
<!-- V12&#45;&#45;V3 -->
<g id="edge21" class="edge">
<title>V12&#45;&#45;V3</title>
<path fill="none" stroke="black" d="M126.48,-225.06C133.97,-225.75 142.1,-226.5 149.6,-227.19"/>
</g>
<!-- V12&#45;&#45;V8 -->
<g id="edge22" class="edge">
<title>V12&#45;&#45;V8</title>
<path fill="none" stroke="black" d="M114.73,-207.22C124.31,-197.6 136.62,-185.25 146.17,-175.66"/>
</g>
<!-- V12&#45;&#45;V11 -->
<g id="edge23" class="edge">
<title>V12&#45;&#45;V11</title>
<path fill="none" stroke="black" d="M81.16,-209.01C70.18,-200.87 56.25,-190.54 45.27,-182.4"/>
</g>
<!-- V13 -->
<g id="node14" class="node">
<title>V13</title>
<ellipse fill="none" stroke="red" cx="209.06" cy="-200.52" rx="27" ry="18"/>
<text text-anchor="middle" x="209.06" y="-195.47" font-family="Times,serif" font-size="14.00">V13</text>
</g>
<!-- V13&#45;&#45;V3 -->
<g id="edge24" class="edge">
<title>V13&#45;&#45;V3</title>
<path fill="none" stroke="black" d="M192.91,-215.11C192.78,-215.22 192.65,-215.34 192.53,-215.45"/>
</g>
<!-- V13&#45;&#45;V9 -->
<g id="edge25" class="edge">
<title>V13&#45;&#45;V9</title>
<path fill="none" stroke="black" d="M218.02,-183.04C221.08,-177.08 224.49,-170.42 227.54,-164.47"/>
</g>
<!-- V13&#45;&#45;V10 -->
<g id="edge26" class="edge">
<title>V13&#45;&#45;V10</title>
<path fill="none" stroke="black" d="M185.78,-190.78C169.56,-184 148.02,-174.99 131.83,-168.22"/>
</g>
</g>
</svg>
